<?xml version="1.0" encoding="utf-8"?>
<!-- Generator: Adobe Illustrator 21.1.0, SVG Export Plug-In . SVG Version: 6.00 Build 0)  -->
<svg version="1.1" id="Layer_1" xmlns="http://www.w3.org/2000/svg" xmlns:xlink="http://www.w3.org/1999/xlink" x="0px" y="0px"
	 viewBox="0 0 98.1 52.7" style="enable-background:new 0 0 98.1 52.7;" xml:space="preserve">
<style type="text/css">
	.st0{fill:#1F1A0C;}
	.st1{fill:url(#SVGID_9_);}
	.st2{fill:url(#SVGID_10_);}
	.st3{fill:url(#SVGID_12_);}
	.st4{fill:url(#SVGID_13_);}
	.st5{fill:url(#SVGID_15_);}
</style>
<path class="st0" d="M96.7,39L80.3,6.2c-1.8-3.5-4.6-5.8-7.7-6.1C72.2,0,71.9,0,71.6,0H64c-0.6,0-1.2,0.1-1.8,0.2
	c-2.4,0.6-4.6,2.3-6.2,4.9c-0.1,0.2-0.2,0.3-0.3,0.5L49,19L42.4,5.7c-0.1-0.2-0.2-0.3-0.3-0.5c-1.6-2.6-3.7-4.3-6.2-4.9
	C35.4,0.1,34.8,0,34.1,0h-7.7c-0.3,0-0.6,0-0.9,0.1c-3.1,0.4-5.9,2.6-7.7,6.1L1.4,39c-1.5,3-1.8,6.1-0.9,8.6
	c0.8,2.9,3.4,5.1,6.6,5.1h9.4c2.6,0,4.9-1.5,6.1-3.8l1.5-3.1c-3.3,0-9,0-9,0H7.7c0,0,0,0,0,0c-1.9,0.1-0.9-2.3-0.1-3.8L23.9,9.3
	c0.7-1.4,1.8-2.4,2.5-2.4v0h7.7v0c0.7,0.1,1.5,0.8,2.1,1.9l11.2,22.3c0.4,0.9,1,1.3,1.6,1.3c0.6,0,1.1-0.4,1.6-1.3L61.8,8.7
	c0.7-1.1,1.5-1.8,2.1-1.9v0h7.7v0c0.8,0,1.8,1,2.5,2.4L90.6,42c0.7,1.5,2,3.8-0.1,3.8c0,0,0,0,0,0h-7.5h0h-1.3h-0.4
	c-2,0-5.2,0-7.2,0l1.5,3.1c1.2,2.3,3.5,3.8,6.1,3.8H91c3.2,0,5.8-2.2,6.6-5.1C98.5,45.1,98.2,42,96.7,39z"/>
<path class="st0" d="M66.3,21.6l-11,21.9c-0.7,1.4-1.7,2.3-2.4,2.4v0H49h-3.9v0c-0.8-0.1-1.8-1.1-2.4-2.4l-11-21.9
	c-0.8-1.7-2.2-1.7-3.1,0l-2.4,4.7l10.3,20.2c1.6,3.1,4,5.3,6.7,6c0.6,0.2,1.2,0.2,1.8,0.2h7.8c0.6,0,1.2-0.1,1.8-0.2
	c2.7-0.7,5.2-2.8,6.7-6l10.3-20.2l-2.4-4.7C68.5,19.9,67.2,19.9,66.3,21.6z"/>
<g>
	<g>
		
			<linearGradient id="SVGID_9_" gradientUnits="userSpaceOnUse" x1="72.7034" y1="49.4841" x2="86.3515" y2="23.5528" gradientTransform="matrix(1 0 0 -1 0 54)">
			<stop  offset="4.669190e-02" style="stop-color:#B3B3B3"/>
			<stop  offset="1" style="stop-color:#000000"/>
		</linearGradient>
		<path class="st1" d="M78.6,10.5c-2.1-3.9-7.5-3.7-7.5-3.7h0.5v0c0.8,0,1.8,1,2.5,2.4l11.2,22.3l3.3-1.3
			C88.6,30.2,79.4,11.9,78.6,10.5z"/>
	</g>
</g>
<g>
	<g>
		
			<linearGradient id="SVGID_10_" gradientUnits="userSpaceOnUse" x1="99.6078" y1="8.3495" x2="75.8387" y2="5.7906" gradientTransform="matrix(1 0 0 -1 0 54)">
			<stop  offset="4.669190e-02" style="stop-color:#B3B3B3"/>
			<stop  offset="1" style="stop-color:#000000"/>
		</linearGradient>
		<path class="st2" d="M91.4,43.8c0.4,1.1,0.5,2.1-0.9,2.1c0,0,0,0,0,0h-7.5h0h-1.3h-0.4c-2,0-5.2,0-7.2,0l1.5,3.1
			c0.1,0.2,0.2,0.4,0.3,0.6c3.2,0,12.6-0.1,15.3-0.2C94.4,49.2,91.5,44,91.4,43.8z"/>
	</g>
</g>
<g>
	<g>
		
			<linearGradient id="SVGID_12_" gradientUnits="userSpaceOnUse" x1="-7892.9038" y1="8.3202" x2="-7916.6738" y2="5.7612" gradientTransform="matrix(-1 0 0 -1 -7894.2998 54)">
			<stop  offset="4.669190e-02" style="stop-color:#B3B3B3"/>
			<stop  offset="1" style="stop-color:#000000"/>
		</linearGradient>
		<path class="st3" d="M6.8,43.8c-0.4,1.1-0.5,2.1,0.9,2.1c0,0,0,0,0,0h7.5h0h1.3H17c2,0,5.2,0,7.2,0L22.7,49
			c-0.1,0.2-0.2,0.4-0.3,0.6c-3.2,0-12.6-0.1-15.3-0.2C3.8,49.3,6.7,44,6.8,43.8z"/>
	</g>
</g>
<g>
	<g>
		
			<linearGradient id="SVGID_13_" gradientUnits="userSpaceOnUse" x1="49.856" y1="31.0636" x2="41.8309" y2="45.8979" gradientTransform="matrix(1 0 0 -1 0 54)">
			<stop  offset="4.669190e-02" style="stop-color:#B3B3B3"/>
			<stop  offset="1" style="stop-color:#000000"/>
		</linearGradient>
		<path class="st4" d="M45.6,19.8c1.9,3.9,4-1.9,4-2L49,19L42.4,5.7c0,0,0-0.1,0-0.1l-2.5,1.9C39.8,7.5,43.7,15.9,45.6,19.8z"/>
	</g>
</g>
<g>
	<g>
		
			<linearGradient id="SVGID_15_" gradientUnits="userSpaceOnUse" x1="26.5184" y1="50.1552" x2="14.1972" y2="30.8224" gradientTransform="matrix(1 0 0 -1 0 54)">
			<stop  offset="4.669190e-02" style="stop-color:#B3B3B3"/>
			<stop  offset="1" style="stop-color:#000000"/>
		</linearGradient>
		<path class="st5" d="M20.4,8.5c-1.2,2.5-7.8,15.6-7.8,15.6l3,1.8l8.4-16.7c0.7-1.4,1.8-2.4,2.5-2.4v0h0.7
			C27.2,6.8,21.6,6.1,20.4,8.5z"/>
	</g>
</g>
<polygon class="st0" points="70.2,23.3 76.6,35.4 67.7,27.4 "/>
<polygon class="st0" points="27.8,23.3 21.5,35.4 30.4,27.4 "/>
</svg>
