<?xml version="1.0" encoding="utf-8"?>
<!-- Generator: Adobe Illustrator 21.1.0, SVG Export Plug-In . SVG Version: 6.00 Build 0)  -->
<svg version="1.1" id="Layer_1" xmlns="http://www.w3.org/2000/svg" xmlns:xlink="http://www.w3.org/1999/xlink" x="0px" y="0px"
	 viewBox="0 0 300 224.5" style="enable-background:new 0 0 300 224.5;" xml:space="preserve">
<style type="text/css">
	.st0{fill:#1E1814;}
	.st1{fill:url(#SVGID_1_);}
	.st2{fill:url(#SVGID_2_);}
	.st3{fill:url(#SVGID_3_);}
	.st4{fill:url(#SVGID_4_);}
	.st5{fill:url(#SVGID_5_);}
	.st6{fill:url(#SVGID_6_);}
	.st7{fill:url(#SVGID_7_);}
	.st8{fill:url(#SVGID_8_);}
	.st9{fill:url(#SVGID_9_);}
</style>
<g>
	<path class="st0" d="M59.4,171.9v13.9H57V176l-4.6,7.1l-4.6-7.1v9.8h-2.4v-13.9h2.6l4.3,6.7l4.4-6.7H59.4z"/>
	<path class="st0" d="M79.4,185.8h-2.6l-1.1-2.4l-1.1-2.4l-2.8-6.2l-2.8,6.2h3.6l1.1,2.4h-5.8l-1.1,2.4h-2.6l6.3-13.9h2.6
		L79.4,185.8z"/>
	<path class="st0" d="M96.9,178.9c0,0.8-0.1,1.5-0.3,2.2c-0.2,0.7-0.5,1.3-0.9,1.9l1.3,1.3v3.4l-7.2-7.2V177l4.2,4.2
		c0.4-0.7,0.6-1.5,0.6-2.4c0-0.6-0.1-1.3-0.4-1.8c-0.2-0.6-0.6-1.1-1.1-1.6c-0.5-0.5-1-0.8-1.6-1.1s-1.2-0.4-1.9-0.4
		c-0.6,0-1.3,0.1-1.8,0.4c-0.6,0.2-1.1,0.6-1.6,1.1c-0.5,0.5-0.8,1-1.1,1.6c-0.2,0.6-0.4,1.2-0.4,1.8s0.1,1.3,0.4,1.9
		c0.2,0.6,0.6,1.1,1.1,1.6c0.5,0.5,1,0.8,1.6,1.1c0.6,0.2,1.2,0.4,1.8,0.4c0.2,0,0.3,0,0.5,0c0.2,0,0.3,0,0.5-0.1l1.9,1.9
		c-0.4,0.2-0.9,0.3-1.4,0.4c-0.5,0.1-1,0.2-1.5,0.2c-1,0-1.9-0.2-2.8-0.6c-0.9-0.4-1.6-0.9-2.3-1.5c-0.6-0.7-1.2-1.4-1.5-2.3
		c-0.4-0.9-0.6-1.8-0.6-2.8s0.2-1.9,0.6-2.8c0.4-0.9,0.9-1.6,1.5-2.3c0.6-0.7,1.4-1.2,2.3-1.5c0.9-0.4,1.8-0.6,2.8-0.6
		c1,0,1.9,0.2,2.8,0.6c0.9,0.4,1.6,0.9,2.3,1.5c0.7,0.7,1.2,1.4,1.5,2.3C96.8,177,96.9,177.9,96.9,178.9z"/>
	<path class="st0" d="M114.1,172v8.3c0,0.8-0.2,1.6-0.5,2.3c-0.3,0.7-0.7,1.3-1.3,1.9c-0.5,0.5-1.1,0.9-1.9,1.3
		c-0.7,0.3-1.5,0.5-2.3,0.5s-1.6-0.2-2.3-0.5c-0.7-0.3-1.3-0.7-1.9-1.3c-0.5-0.5-0.9-1.1-1.3-1.9c-0.3-0.7-0.5-1.5-0.5-2.3V172h2.4
		v8.3c0,0.5,0.1,0.9,0.3,1.3s0.4,0.8,0.8,1.1c0.3,0.3,0.7,0.6,1.1,0.8c0.4,0.2,0.9,0.3,1.3,0.3c1,0,1.8-0.3,2.4-1
		c0.3-0.3,0.6-0.7,0.8-1.1s0.3-0.9,0.3-1.3V172H114.1z"/>
	<path class="st0" d="M121.8,185.8h-2.4V172h2.4V185.8z"/>
	<path class="st0" d="M137.8,171.9v13.9h-2.6l-5.6-9.5v9.5h-2.4v-13.9h2.6l5.6,9.5v-9.5H137.8z"/>
	<path class="st0" d="M157.8,185.8h-2.6l-1.1-2.4l-1.1-2.4l-2.8-6.2l-2.8,6.2h3.6l1.1,2.4h-5.8l-1.1,2.4h-2.6l6.3-13.9h2.6
		L157.8,185.8z"/>
	<path class="st0" d="M175.7,185.8l-5.6-13.9h2.6l4.2,10.6l3.9-10.6h2.5l-5.2,13.9H175.7z"/>
	<path class="st0" d="M190.7,185.8h-2.4V172h2.4V185.8z"/>
	<path class="st0" d="M206,181.9c0,0.6-0.1,1.2-0.3,1.8c-0.2,0.5-0.5,1-0.9,1.3c-0.4,0.4-0.9,0.6-1.4,0.8c-0.6,0.2-1.2,0.3-1.9,0.3
		c-1.1,0-2.1-0.2-2.9-0.5c-0.9-0.3-1.6-0.7-2.1-1.2l1.6-1.6c0.4,0.4,0.9,0.7,1.5,0.9c0.3,0.1,0.6,0.2,0.9,0.3c0.3,0,0.5,0.1,0.7,0.1
		c0.3,0,0.7,0,0.9-0.1c0.3-0.1,0.5-0.2,0.7-0.3c0.4-0.3,0.7-0.8,0.7-1.3c0-0.3-0.1-0.6-0.4-0.9c-0.2-0.2-0.4-0.4-0.7-0.5
		c-0.2-0.1-0.5-0.2-0.8-0.3c-0.3-0.1-0.5-0.2-0.7-0.2c-0.1,0-0.1,0-0.2,0c-0.1,0-0.1,0-0.1,0c0,0-0.1,0-0.1,0
		c-0.3-0.1-0.7-0.2-1.2-0.4c-0.5-0.2-1-0.5-1.6-0.8c-1.2-0.8-1.8-1.8-1.8-3c0-0.8,0.1-1.4,0.4-2c0.3-0.5,0.6-1,1.1-1.3
		s0.9-0.6,1.5-0.7s1.1-0.2,1.6-0.2c1,0,1.8,0.1,2.4,0.3c0.6,0.2,1.2,0.4,1.5,0.7c0.2,0.1,0.4,0.2,0.5,0.3c0.1,0.1,0.3,0.2,0.4,0.3
		l-1.7,1.7c-0.4-0.4-0.7-0.6-1.1-0.8c-0.6-0.3-1.1-0.4-1.7-0.4c-0.3,0-0.5,0-0.8,0.1c-0.3,0.1-0.5,0.2-0.7,0.3
		c-0.6,0.4-0.9,0.8-0.9,1.4c0,0.4,0.1,0.7,0.4,0.9c0.2,0.2,0.4,0.4,0.7,0.5c0.3,0.1,0.5,0.2,0.8,0.3c0.3,0.1,0.5,0.2,0.8,0.2
		l0.2,0.1c0.1,0,0.2,0.1,0.4,0.1c0.2,0.1,0.4,0.1,0.7,0.2c0.3,0.1,0.5,0.2,0.8,0.4c0.3,0.1,0.6,0.3,0.9,0.5
		C205.3,179.7,206,180.7,206,181.9z"/>
	<path class="st0" d="M222.7,172v8.3c0,0.8-0.2,1.6-0.5,2.3c-0.3,0.7-0.7,1.3-1.3,1.9c-0.5,0.5-1.1,0.9-1.9,1.3
		c-0.7,0.3-1.5,0.5-2.3,0.5c-0.8,0-1.6-0.2-2.3-0.5c-0.7-0.3-1.3-0.7-1.9-1.3c-0.5-0.5-0.9-1.1-1.3-1.9c-0.3-0.7-0.5-1.5-0.5-2.3
		V172h2.4v8.3c0,0.5,0.1,0.9,0.3,1.3c0.2,0.4,0.4,0.8,0.8,1.1c0.3,0.3,0.7,0.6,1.1,0.8c0.4,0.2,0.9,0.3,1.3,0.3c1,0,1.8-0.3,2.4-1
		c0.3-0.3,0.6-0.7,0.8-1.1s0.3-0.9,0.3-1.3V172H222.7z"/>
	<path class="st0" d="M241.7,185.8h-2.6l-1.1-2.4l-1.1-2.4l-2.8-6.2l-2.8,6.2h3.6l1.1,2.4h-5.8l-1.1,2.4h-2.6l6.3-13.9h2.6
		L241.7,185.8z"/>
	<path class="st0" d="M254.4,183.5v2.4H249h-2.4v-2.4V172h2.4v11.5H254.4z"/>
</g>
<g>
	<linearGradient id="SVGID_1_" gradientUnits="userSpaceOnUse" x1="255.9249" y1="93.5796" x2="44.0647" y2="93.5796">
		<stop  offset="0" style="stop-color:#C55903"/>
		<stop  offset="1" style="stop-color:#D62688"/>
	</linearGradient>
	<path class="st1" d="M252.9,120.9l-35.4-70.8c-3.9-7.6-9.9-12.5-16.6-13.2c-0.9-0.2-1.5-0.2-2.2-0.2h-16.4c-1.3,0-2.6,0.2-3.9,0.4
		c-5.2,1.3-9.9,5-13.4,10.6c-0.2,0.4-0.4,0.6-0.6,1.1l-14.5,28.9L135.6,49c-0.2-0.4-0.4-0.6-0.6-1.1c-3.5-5.6-8-9.3-13.4-10.6
		c-1.1-0.4-2.4-0.6-3.9-0.6h-16.6c-0.6,0-1.3,0-1.9,0.2c-6.7,0.9-12.7,5.6-16.6,13.2l-35.4,70.8c-3.2,6.5-3.9,13.2-1.9,18.6
		c1.7,6.3,7.3,11,14.3,11h20.3c5.6,0,10.6-3.2,13.2-8.2l3.2-6.6c-7.1,0-35.4,0-35.4,0l0,0c-4.1,0.2-1.9-5.1-0.2-8.3l35.2-70.6
		c1.5-3,3.9-5.4,5.4-5.4h16.7c1.5,0.2,3.2,1.9,4.5,4.3l24.2,48.2c0.9,1.9,2.2,2.8,3.5,2.8c1.3,0,2.4-0.9,3.5-2.8l24.2-48.4
		c1.5-2.4,3.2-3.9,4.5-4.1l0,0h16.6l0,0c1.7,0,3.9,2.2,5.4,5.2l35.6,70.8c1.5,3.2,4.4,8.3-0.1,8.3c0,0-31.1,0-35.4,0l3.1,6.6
		c2.6,5,7.6,8.2,13.2,8.2h20.1c6.9,0,12.5-4.8,14.3-11C256.8,134.1,256.1,127.4,252.9,120.9z"/>
	<g>
		<g>
			<linearGradient id="SVGID_2_" gradientUnits="userSpaceOnUse" x1="204.578" y1="66.7099" x2="227.2512" y2="118.8045">
				<stop  offset="4.669190e-02" style="stop-color:#6D2A06"/>
				<stop  offset="0.3253" style="stop-color:#E12C06"/>
				<stop  offset="0.6584" style="stop-color:#C55903"/>
			</linearGradient>
			<path class="st2" d="M197.6,51.4h0.6C197.8,51.4,197.6,51.4,197.6,51.4z"/>
			<linearGradient id="SVGID_3_" gradientUnits="userSpaceOnUse" x1="205.0957" y1="66.4846" x2="227.769" y2="118.5791">
				<stop  offset="4.669190e-02" style="stop-color:#6D2A06"/>
				<stop  offset="0.3253" style="stop-color:#E12C06"/>
				<stop  offset="0.6584" style="stop-color:#C55903"/>
			</linearGradient>
			<path class="st3" d="M198.2,51.4c0.2,0,0.4,0,0.7,0c-0.1,0-0.1,0-0.2,0H198.2z"/>
			<linearGradient id="SVGID_4_" gradientUnits="userSpaceOnUse" x1="211.482" y1="63.7051" x2="234.1553" y2="115.7996">
				<stop  offset="4.669190e-02" style="stop-color:#6D2A06"/>
				<stop  offset="0.3253" style="stop-color:#E12C06"/>
				<stop  offset="0.6584" style="stop-color:#C55903"/>
			</linearGradient>
			<path class="st4" d="M234.8,114.5c-1.6-5.8-0.9-7.6-0.5-8.9c0.7-2.4-0.1-6.8-1.2-9c-4.9-9.7-17.9-34.8-19.3-37.3
				c-3.6-6.8-11.8-7.8-15-8c1.7,0.1,3.8,2.2,5.2,5.2l32,63.5c0-0.4,0.1-0.8,0.1-1.2C235.7,117.4,235.2,115.9,234.8,114.5z"/>
		</g>
	</g>
	<g>
		
			<linearGradient id="SVGID_5_" gradientUnits="userSpaceOnUse" x1="260.2512" y1="693.2462" x2="205.1679" y2="699.1763" gradientTransform="matrix(1 0 0 1 0 -558)">
			<stop  offset="4.669190e-02" style="stop-color:#6D2A06"/>
			<stop  offset="1" style="stop-color:#E12C06"/>
		</linearGradient>
		<path class="st5" d="M241.5,131.2c0.8,2.4,1,4.5-1.9,4.5c0,0-31.1,0-35.4,0l3.1,6.6c0.3,0.5,0.6,1,0.9,1.5c7.1,0,27-0.2,32.8-0.4
			C247.9,142.9,241.5,131.2,241.5,131.2z"/>
	</g>
	<g>
		<g>
			
				<linearGradient id="SVGID_6_" gradientUnits="userSpaceOnUse" x1="159.1818" y1="63.7077" x2="181.843" y2="115.7746" gradientTransform="matrix(-1 0 0 1 247.6684 0)">
				<stop  offset="4.669190e-02" style="stop-color:#6D2A06"/>
				<stop  offset="0.285" style="stop-color:#E12C06"/>
				<stop  offset="0.5104" style="stop-color:#D62688"/>
			</linearGradient>
			<path class="st6" d="M65.2,114.5c1.6-5.8,0.9-7.6,0.5-8.9c-0.7-2.4,0.1-6.8,1.2-9c4.9-9.7,17.9-34.8,19.3-37.3
				c3.6-6.8,11.8-7.8,15-8c-1.7,0.1-3.8,2.2-5.2,5.1l-31.8,63.6c0-0.4-0.3-0.9-0.4-1.3C64.3,117.4,64.8,115.9,65.2,114.5z"/>
		</g>
	</g>
	<g>
		
			<linearGradient id="SVGID_7_" gradientUnits="userSpaceOnUse" x1="207.6749" y1="693.2536" x2="152.5917" y2="699.1837" gradientTransform="matrix(-1 0 0 1 247.6684 -558)">
			<stop  offset="4.669190e-02" style="stop-color:#6D2A06"/>
			<stop  offset="1" style="stop-color:#E12C06"/>
		</linearGradient>
		<path class="st7" d="M58.8,131.2c-0.8,2.4-0.6,4.4,2.3,4.4c0,0,30.7,0,35,0l-3.1,6.6c-0.3,0.5-0.6,1-0.9,1.5
			c-7.1,0-27-0.2-32.8-0.4C52.3,142.9,58.8,131.2,58.8,131.2z"/>
	</g>
	<g>
		<linearGradient id="SVGID_8_" gradientUnits="userSpaceOnUse" x1="152.9281" y1="86.0701" x2="124.8565" y2="41.8033">
			<stop  offset="4.669190e-02" style="stop-color:#6D2A06"/>
			<stop  offset="1" style="stop-color:#E12C06"/>
		</linearGradient>
		<path class="st8" d="M128.2,46.9c2.6,5,10.2,24.2,14.3,32.6c4.1,8.4,8.6-4.1,8.6-4.3l-1.3,2.6L135.6,49c-0.2-0.4-0.4-0.6-0.6-1.1
			c-3.5-5.6-8-9.3-13.4-10.6c-1.1-0.4-2.4-0.6-3.9-0.6h-0.2c0,0,0,0,0,0S125.6,41.8,128.2,46.9z"/>
	</g>
	<linearGradient id="SVGID_9_" gradientUnits="userSpaceOnUse" x1="90.3683" y1="115.5242" x2="209.3299" y2="115.5242">
		<stop  offset="0" style="stop-color:#C55903"/>
		<stop  offset="1" style="stop-color:#D62688"/>
	</linearGradient>
	<path class="st9" d="M209.3,113.4l-15.8-30.1c-1.5-3.7-4.3-3.7-6.3,0l-23.8,47.3c-1.5,3-3.7,5-5.2,5.2h-16.8
		c-1.7-0.2-3.9-2.4-5.2-5.2l-23.8-47.3c-1.7-3.7-4.8-3.7-6.7,0l-15.5,29.8l13.9-12.5l18.6,36.5c3.5,6.7,8.6,11.4,14.5,13
		c1.3,0.4,2.6,0.4,3.9,0.4h16.8c1.3,0,2.6-0.2,3.9-0.4c5.8-1.5,11.2-6,14.5-13l18.6-36.5L209.3,113.4z"/>
</g>
</svg>
