<?xml version="1.0" encoding="utf-8"?>
<!-- Generator: Adobe Illustrator 21.1.0, SVG Export Plug-In . SVG Version: 6.00 Build 0)  -->
<svg version="1.1" id="Layer_1" xmlns="http://www.w3.org/2000/svg" xmlns:xlink="http://www.w3.org/1999/xlink" x="0px" y="0px"
	 viewBox="0 0 821.1 480" style="enable-background:new 0 0 821.1 480;" xml:space="preserve">
<style type="text/css">
	.st0{fill:#1E1814;}
</style>
<g>
	<path class="st0" d="M662.3,419.2c56.4-7.8,97.5-52.1,116.3-112.7c7.7-25.1,8.8-52.9,6.1-82c-5-51.9-28.8-97-63.6-129.9
		c-0.1-0.2-0.2-0.2-0.2-0.1c-0.1,0.2-0.4,0.3-0.6,0.4c-0.2,0.1-0.2,0-0.1,0.2c36.9,33.8,60.7,87.5,63.3,141.9
		c4,77.6-33.7,146.3-90.2,169.9c-9.5,4-19.4,7.1-29.7,8.6C662.7,416.5,662.3,417.8,662.3,419.2"/>
	<path class="st0" d="M803,289.7c-4.6,5.5-11.9,10.9-19.9,8.8c-0.4,0.6-2.5,3.7-2.8,4.1c-0.4,0.6-1,1.1-1.5,0.7
		c-0.3-0.2-0.6-0.7-0.2-1.4c1.1-1.4,2.3-2.9,3.6-4.4c2.3-12.3,5.7-20.5,12.8-28.8c8.2-9.5,16.6-13.8,21.8-15.6
		c0.8-0.2,1.5-0.4,2.2-0.6c0.5,4.8-1.7,11.7-3.4,15.7C812.3,276.1,808.6,283.2,803,289.7"/>
	<path class="st0" d="M735,116.2c0.7,0.3,4.5,1.3,5,0.5c0.2-0.2,0-1-0.4-1c-1.4-0.2-3-0.3-4.3-0.5c-2.5-7.8-9.4-11.2-15.7-12.5
		c-7.6-1.5-16,0.8-24.9,2.1c-0.4,0.1-1,0.1-1.4,0.2c0.1,0.3,0.4,0.5,0.6,0.8c3.8,5.1,9.6,9.8,15.4,12.1c3.8,1.6,8.4,2.5,13,2.4
		C726.9,120,730.9,118.9,735,116.2"/>
	<path class="st0" d="M720.2,94.9c-0.3,0.1-0.3,0-0.9-0.3c-1.1-1-2-1.6-3.1-2.6c-6.1,0-11.9-1.8-17.3-5.4c-2.4-1.6-4.8-3.6-6.9-6
		c-4.9-5.2-8.8-12.9-10.6-19.9c-0.1-0.4-0.2-0.7-0.2-1.1c0.5,0.2,0.9,0.4,1.3,0.6c9.9,3.9,19.4,5.8,27.3,13.4
		c5.4,5.1,8.2,11.3,7,17.3c1.2,1,2.5,1.9,3.6,3C721.1,94.5,720.5,94.9,720.2,94.9"/>
	<path class="st0" d="M756,148.9c0.7,0.4,4.4,2.3,4.9,1.6c0.2-0.2,0.1-1.1-0.2-1.2c-1.4-0.5-3-0.9-4.3-1.5
		c-0.5-5.5-3.6-10.7-9.7-14.2c-9.4-5-20-4.1-30.1-5c-0.5,0-1-0.1-1.4-0.1c0.2,0.3,0.3,0.6,0.4,0.9c3.4,5.8,8.7,12,14.3,15.6
		c3.7,2.5,8.3,4.4,12.8,5.3C747.5,151.1,751.6,150.6,756,148.9"/>
	<path class="st0" d="M805.1,234.1c-3.1,6.8-8.5,14.3-16.5,14.8c-0.3,0.7-1.7,4-1.9,4.5c-0.2,0.7-0.7,1.5-1.3,1.2
		c-0.3-0.1-0.6-0.5-0.5-1.2c0.8-1.8,1.7-3.3,2.6-5.1c-0.7-12.6,0-21.7,4.8-32.1c5.4-11.9,13-18.8,17.6-22.1c0.6-0.5,1.2-0.9,1.9-1.3
		c1.1,4.8,0.7,12.4,0.1,16.8C810.6,218.4,808.7,226.2,805.1,234.1"/>
	<path class="st0" d="M796.1,183.7c-1.3,7.3-4.6,14.7-11.9,17.8c-0.1,0.8-0.9,4.3-1,4.9c0,0.7-0.3,1.6-1,1.5c-0.2-0.1-0.7-0.2-0.8-1
		c0.3-1.9,0.9-4.1,1.2-6.2c-2.4-8.9-3.7-17-3.3-25.7c0.7-12.2,5.2-22.8,12.4-31.3c0.5-0.6,1-1.3,1.5-1.8c2,4.2,3.3,11.4,3.7,15.7
		C797.7,166.3,797.6,175.1,796.1,183.7"/>
	<path class="st0" d="M777.7,137.6c0.2,7.5-1.6,15.9-7.9,20.8c0.1,0.7,0.2,4.4,0.2,4.9c0.1,0.7,0.1,1.6-0.7,1.7
		c-0.3,0-0.7,0-0.9-0.8c-0.1-1.9-0.2-4.8-0.3-6.8c-5.4-9.1-8.2-19-8.4-30.4c-0.2-13.1,3.1-21.5,5.6-26.8c0.3-0.7,0.7-1.4,1-2.1
		c2.8,3.5,5.5,10,6.7,14.1C775.7,120.5,777.5,129,777.7,137.6"/>
	<path class="st0" d="M749.8,95.6c1.6,7,1.1,17.4-4.1,21.6c0.2,0.9,0.6,4.1,0.7,4.7c0.2,0.7,0.4,1.5-0.3,1.8
		c-0.3,0.1-0.4,0.1-0.7-0.6c-0.3-2-0.4-3.6-0.8-5.6c-7.5-8-11.8-15.9-14.1-26.7c-2.4-11.3-2.1-20.3-1-26.6c0.1-0.8,0.3-1.5,0.5-2.3
		c6.6,5.3,11.2,12.2,15.2,20.1C747.4,86.4,749.1,90.8,749.8,95.6"/>
	<path class="st0" d="M772.8,192c0.6,0.6,4,3.7,4.8,3.3c0.2-0.2,0.4-1.2,0-1.5c-1.3-1-2.9-1.8-4.2-2.7c0.4-6.1-1-12.2-6.5-18.1
		c-8.5-8.2-19.8-11-30.1-15.3c-0.5-0.2-0.9-0.5-1.4-0.7c0.1,0.4,0.2,0.7,0.3,1.1c2,7.1,6.1,15.4,11,20.9c3.2,3.8,7.5,7.3,12,9.7
		C763.4,191.5,767.9,192.3,772.8,192"/>
	<path class="st0" d="M779.9,241.5c0.5,0.8,3.1,5.2,4,4.9c0.3,0,0.7-1,0.4-1.5c-1.1-1.5-2.5-2.7-3.5-4.2c1.7-5.6,0.9-13.6-3.2-21.3
		c-6.6-11.2-16.2-16.7-25.6-24.6c-0.4-0.4-0.8-0.8-1.2-1.2c0,0.4-0.1,0.8,0,1.2c0.2,7.7,2.2,17.4,5.8,24.7c2.3,4.9,5.8,9.9,9.7,13.9
		C770.4,237.7,774.8,240.1,779.9,241.5"/>
	<path class="st0" d="M775.2,290.1c0.3,1,2.2,6.1,3.1,6.3c0.3,0,0.9-0.8,0.7-1.3c-0.8-1.7-1.6-3.7-2.3-5.5c3.1-3,4.2-11.3,1.7-20
		c-4.2-12.8-13.6-22.4-21.1-32.9c-0.4-0.5-0.7-1-1.1-1.5c-0.1,0.4-0.2,0.8-0.2,1.1c-1.3,7.4-1.2,17.3,0.8,25.4
		c1.4,5.4,3.7,11.3,6.8,16.4C766.7,283.4,770.5,287.1,775.2,290.1"/>
	<path class="st0" d="M786.6,346.9c-5.7,3.7-16,6.6-23,2c-0.5,0.4-3.5,2.2-3.8,2.5c-0.5,0.5-1.2,0.9-1.7,0.1
		c-0.2-0.3-0.4-0.8,0.1-1.4c1.4-1,3.1-1.7,4.7-2.7c5.4-11.2,11.2-18.7,20-24.3c10.1-6.5,18.6-6.6,24-6.6c0.8,0,1.5,0,2.3,0.1
		C807.7,327.6,794.1,342.2,786.6,346.9"/>
	<path class="st0" d="M758.4,338.3c0,0.7,0.4,3.9,0.9,5.8c0.2,0.5,0.2,1.4,1,1.1c0.3-0.1,0.6-0.7,0.6-1c-0.4-1.9-0.7-4-0.8-5.9
		c3.5-2.2,6.3-9.5,6.8-18.5c-0.6-13.5-6.7-25.8-11.5-38.5c-0.1-0.6-0.3-1.2-0.6-1.8c-0.2,0.3-0.3,0.6-0.5,0.9
		c-3.2,6.7-5.7,16.1-5.9,24.5c-0.2,5.5,0.6,12,2.2,17.9C752.3,328.9,754.8,333.7,758.4,338.3"/>
	<path class="st0" d="M755.5,393.1c-6.6,1.3-15.5,1-21.1-6.1c-1.4,0.2-3.7,0.6-5.1,0.7c-0.4,0-0.7-0.2-0.9-0.8
		c-0.1-0.4,0-0.8,0.7-1.2c1.6-0.4,3.3-0.3,5.1-0.7c7.4-8.7,14.4-13.5,24.5-15.4c11.7-2.1,21.6,0.9,26.8,3.1c0.7,0.3,1.5,0.6,2.1,0.9
		c-1.9,4.2-7.4,8.5-10.8,10.6C770.2,388.7,763.5,391.8,755.5,393.1"/>
	<path class="st0" d="M732,374.8c-0.1,0.8-0.2,3.8-0.2,5.8c0,0.5-0.1,1.3,0.7,1.3c0.4,0,0.7-0.4,0.8-0.8c0.1-1.9,0.1-3.9,0.4-5.8
		c3.9-1.2,9.1-7.1,11.5-15.3c2.7-13.1-0.3-26.6-1.7-40.4c-0.1-0.6-0.1-1.2-0.1-1.9c-0.2,0.3-0.6,0.5-0.8,0.7
		c-4.8,5.2-9.6,13.3-11.8,21.2c-1.6,5.2-2.4,11.6-2.4,17.7C728.3,363.9,729.6,369.3,732,374.8"/>
	<path class="st0" d="M695.1,401.5c-0.3,0.6-0.8,3.1-1.3,5c-0.1,0.4-0.4,1.1,0.2,1.4c0.3,0.1,0.8-0.1,0.9-0.4c0.7-1.6,0.7-3.3,1.4-5
		c3.8,0.9,10.4-3.9,14.7-10.2c6-10.8,6.6-23.6,8.9-36.5c0.1-0.6,0.2-1.2,0.4-1.8c-0.3,0.1-0.6,0.2-0.9,0.3
		c-5.7,2.9-12.3,8-16.5,14.3c-2.9,4.1-5.6,9.7-7.1,15.3C694.4,389.9,694.3,395.5,695.1,401.5"/>
	<path class="st0" d="M715.8,425.5c-6.7-0.9-15.5-4-19.3-12.6c-1.4-0.4-3.7-0.7-5.2-1.1c-0.4-0.1-0.6-0.5-0.7-1
		c0-0.3,0.2-0.8,0.9-0.9c1.7,0.2,3.3,0.8,5.2,1c9.8-5.8,17.7-8.4,27.9-6.9c11.8,1.7,20.4,7.6,25,11.4c0.7,0.6,1.3,1,1.9,1.6
		c-2.9,3.5-9.2,5.8-13,6.8C731.3,425.9,723.9,426.7,715.8,425.5"/>
</g>
<g>
	<path class="st0" d="M158.8,419.2c-56.4-7.8-97.5-52.1-116.3-112.7c-7.7-25.1-8.8-52.9-6.1-82c5-51.9,28.8-97,63.6-129.9
		c0.1-0.2,0.2-0.2,0.2-0.1c0.1,0.2,0.4,0.3,0.6,0.4c0.2,0.1,0.3,0,0.1,0.2C64,129,40.3,182.7,37.7,237
		c-4,77.6,33.7,146.3,90.2,169.9c9.5,4,19.4,7.1,29.7,8.6C158.3,416.5,158.8,417.8,158.8,419.2"/>
	<path class="st0" d="M18.1,289.7c4.6,5.5,11.9,10.9,19.8,8.8c0.4,0.6,2.5,3.7,2.8,4.1c0.4,0.6,1,1.1,1.5,0.7
		c0.3-0.2,0.6-0.7,0.3-1.4c-1.1-1.4-2.3-2.9-3.6-4.4c-2.3-12.3-5.7-20.5-12.8-28.8c-8.2-9.5-16.6-13.8-21.8-15.6
		c-0.8-0.2-1.5-0.4-2.2-0.6c-0.5,4.8,1.7,11.7,3.4,15.7C8.8,276.1,12.4,283.2,18.1,289.7"/>
	<path class="st0" d="M86,116.2c-0.6,0.3-4.5,1.3-5,0.5c-0.2-0.2,0.1-1,0.4-1c1.4-0.2,3-0.3,4.3-0.5c2.5-7.8,9.4-11.2,15.7-12.5
		c7.6-1.5,16,0.8,24.9,2.1c0.4,0.1,0.9,0.1,1.4,0.2c-0.1,0.3-0.4,0.5-0.6,0.8c-3.8,5.1-9.6,9.8-15.4,12.1c-3.8,1.6-8.5,2.5-13,2.4
		C94.2,120,90.1,118.9,86,116.2"/>
	<path class="st0" d="M100.8,94.9c0.3,0.1,0.3,0,0.9-0.3c1.1-1,2-1.6,3.1-2.6c6.1,0,11.9-1.8,17.3-5.4c2.4-1.6,4.8-3.6,6.9-6
		c4.9-5.2,8.8-12.9,10.6-19.9c0.1-0.4,0.2-0.7,0.2-1.1c-0.4,0.2-0.9,0.4-1.3,0.6c-9.8,3.9-19.3,5.8-27.3,13.4
		c-5.4,5.1-8.2,11.3-7,17.3c-1.2,1-2.5,1.9-3.7,3C99.9,94.5,100.5,94.9,100.8,94.9"/>
	<path class="st0" d="M65.1,148.9c-0.7,0.4-4.4,2.3-4.9,1.6c-0.2-0.2-0.1-1.1,0.2-1.2c1.4-0.5,3-0.9,4.3-1.5
		c0.5-5.5,3.6-10.7,9.7-14.2c9.4-5,20-4.1,30.1-5c0.5,0,1-0.1,1.4-0.1c-0.1,0.3-0.3,0.6-0.4,0.9c-3.4,5.8-8.8,12-14.3,15.6
		c-3.7,2.5-8.3,4.4-12.8,5.3C73.6,151.1,69.5,150.6,65.1,148.9"/>
	<path class="st0" d="M16,234.1c3.1,6.8,8.5,14.3,16.5,14.8c0.3,0.7,1.7,4,1.9,4.5c0.2,0.7,0.7,1.5,1.3,1.2c0.3-0.1,0.6-0.5,0.5-1.2
		c-0.8-1.8-1.7-3.3-2.6-5.1c0.7-12.6,0-21.7-4.8-32.1c-5.4-11.9-13-18.8-17.6-22.1c-0.6-0.5-1.2-0.9-1.9-1.3
		c-1,4.8-0.7,12.4-0.1,16.8C10.5,218.4,12.4,226.2,16,234.1"/>
	<path class="st0" d="M25,183.7c1.3,7.3,4.6,14.7,11.9,17.8c0.1,0.8,0.9,4.3,1,4.9c0,0.7,0.3,1.6,1,1.5c0.2-0.1,0.7-0.2,0.8-1
		c-0.3-1.9-0.9-4.1-1.2-6.2c2.4-8.9,3.8-17,3.3-25.7c-0.7-12.2-5.2-22.8-12.4-31.3c-0.5-0.6-1-1.3-1.5-1.8c-2,4.2-3.3,11.4-3.7,15.7
		C23.4,166.3,23.4,175.1,25,183.7"/>
	<path class="st0" d="M43.4,137.6c-0.2,7.5,1.6,15.9,7.9,20.8c0,0.7-0.2,4.4-0.2,4.9c-0.1,0.7,0,1.6,0.7,1.7c0.3,0,0.7,0,0.9-0.8
		c0.1-1.9,0.2-4.8,0.3-6.8c5.4-9.1,8.2-19,8.4-30.4c0.2-13.1-3.1-21.5-5.6-26.8c-0.3-0.7-0.7-1.4-1-2.1c-2.8,3.5-5.5,10-6.7,14.1
		C45.4,120.5,43.6,129,43.4,137.6"/>
	<path class="st0" d="M71.2,95.6c-1.6,7-1.2,17.4,4.1,21.6c-0.2,0.9-0.6,4.1-0.7,4.7c-0.2,0.7-0.4,1.5,0.2,1.8
		c0.3,0.1,0.4,0.1,0.7-0.6c0.3-2,0.4-3.6,0.8-5.6c7.5-8,11.8-15.9,14.1-26.7c2.4-11.3,2-20.3,1-26.6c-0.1-0.8-0.3-1.5-0.5-2.3
		C84.3,67.2,79.7,74.1,75.7,82C73.7,86.4,72,90.8,71.2,95.6"/>
	<path class="st0" d="M48.3,192c-0.6,0.6-4,3.7-4.8,3.3c-0.2-0.2-0.4-1.2,0-1.5c1.3-1,2.9-1.8,4.2-2.7c-0.4-6.1,1-12.2,6.5-18.1
		c8.5-8.2,19.8-11,30.1-15.3c0.5-0.2,0.9-0.5,1.4-0.7c-0.1,0.4-0.2,0.7-0.3,1.1c-2,7.1-6.1,15.4-11,20.9c-3.2,3.8-7.5,7.3-12,9.7
		C57.7,191.5,53.2,192.3,48.3,192"/>
	<path class="st0" d="M41.2,241.5c-0.5,0.8-3.1,5.2-4,4.9c-0.3,0-0.7-1-0.4-1.5c1.1-1.5,2.5-2.7,3.5-4.2c-1.7-5.6-0.9-13.6,3.2-21.3
		c6.6-11.2,16.2-16.7,25.6-24.6c0.4-0.4,0.8-0.8,1.2-1.2c0,0.4,0.1,0.8,0,1.2c-0.2,7.7-2.2,17.4-5.8,24.7c-2.3,4.9-5.8,9.9-9.7,13.9
		C50.6,237.7,46.3,240.1,41.2,241.5"/>
	<path class="st0" d="M45.8,290.1c-0.3,1-2.2,6.1-3.1,6.3c-0.3,0-0.9-0.8-0.7-1.3c0.8-1.7,1.6-3.7,2.3-5.5c-3.1-3-4.2-11.3-1.7-20
		c4.2-12.8,13.6-22.4,21.1-32.9c0.4-0.5,0.7-1,1.1-1.5c0.1,0.4,0.2,0.8,0.2,1.1c1.3,7.4,1.2,17.3-0.8,25.4
		c-1.4,5.4-3.8,11.3-6.8,16.4C54.3,283.4,50.5,287.1,45.8,290.1"/>
	<path class="st0" d="M34.5,346.9c5.7,3.7,16,6.6,23,2c0.5,0.4,3.5,2.2,3.8,2.5c0.5,0.5,1.2,0.9,1.7,0.1c0.3-0.3,0.4-0.8-0.1-1.4
		c-1.5-1-3.1-1.7-4.7-2.7c-5.4-11.2-11.2-18.7-20-24.3c-10.1-6.5-18.6-6.6-24-6.6c-0.8,0-1.5,0-2.3,0.1
		C13.3,327.6,26.9,342.2,34.5,346.9"/>
	<path class="st0" d="M62.6,338.3c-0.1,0.7-0.4,3.9-0.9,5.8c-0.2,0.5-0.2,1.4-1,1.1c-0.3-0.1-0.6-0.7-0.6-1c0.4-1.9,0.7-4,0.8-5.9
		c-3.5-2.2-6.3-9.5-6.8-18.5c0.6-13.5,6.7-25.8,11.5-38.5c0.1-0.6,0.3-1.2,0.6-1.8c0.2,0.3,0.3,0.6,0.5,0.9
		c3.2,6.7,5.7,16.1,5.9,24.5c0.2,5.5-0.6,12-2.2,17.9C68.8,328.9,66.3,333.7,62.6,338.3"/>
	<path class="st0" d="M65.6,393.1c6.6,1.3,15.5,1,21.1-6.1c1.4,0.2,3.7,0.6,5.1,0.7c0.4,0,0.7-0.2,0.9-0.8c0.1-0.4,0-0.8-0.7-1.2
		c-1.7-0.4-3.3-0.3-5.1-0.7c-7.4-8.7-14.4-13.5-24.5-15.4c-11.7-2.1-21.6,0.9-26.8,3.1c-0.7,0.3-1.5,0.6-2.1,0.9
		c1.9,4.2,7.4,8.5,10.8,10.6C50.8,388.7,57.6,391.8,65.6,393.1"/>
	<path class="st0" d="M89.1,374.8c0.1,0.8,0.2,3.8,0.2,5.8c0,0.5,0.1,1.3-0.7,1.3c-0.4,0-0.7-0.4-0.8-0.8c-0.1-1.9,0-3.9-0.4-5.8
		c-3.9-1.2-9.1-7.1-11.5-15.3c-2.7-13.1,0.3-26.6,1.7-40.4c0.1-0.6,0.1-1.2,0.1-1.9c0.2,0.3,0.6,0.5,0.8,0.7
		c4.8,5.2,9.5,13.3,11.8,21.2c1.6,5.2,2.4,11.6,2.4,17.7C92.7,363.9,91.4,369.3,89.1,374.8"/>
	<path class="st0" d="M126,401.5c0.3,0.6,0.8,3.1,1.3,5c0.1,0.4,0.4,1.1-0.2,1.4c-0.4,0.1-0.8-0.1-0.9-0.4c-0.7-1.6-0.7-3.3-1.5-5
		c-3.8,0.9-10.4-3.9-14.7-10.2c-6-10.8-6.6-23.6-8.9-36.5c-0.1-0.6-0.2-1.2-0.4-1.8c0.3,0.1,0.6,0.2,0.9,0.3
		c5.7,2.9,12.3,8,16.5,14.3c2.9,4.1,5.6,9.7,7.1,15.3C126.7,389.9,126.8,395.5,126,401.5"/>
	<path class="st0" d="M105.3,425.5c6.7-0.9,15.5-4,19.3-12.6c1.3-0.4,3.7-0.7,5.2-1.1c0.4-0.1,0.6-0.5,0.7-1c0-0.3-0.2-0.8-0.9-0.9
		c-1.7,0.2-3.3,0.8-5.2,1c-9.8-5.8-17.7-8.4-28-6.9c-11.8,1.7-20.4,7.6-25,11.4c-0.7,0.6-1.3,1-1.9,1.6c2.9,3.5,9.2,5.8,13,6.8
		C89.8,425.9,97.1,426.7,105.3,425.5"/>
</g>
</svg>
