<?xml version="1.0" encoding="utf-8"?>
<!-- Generator: Adobe Illustrator 21.1.0, SVG Export Plug-In . SVG Version: 6.00 Build 0)  -->
<svg version="1.1" id="Layer_1" xmlns="http://www.w3.org/2000/svg" xmlns:xlink="http://www.w3.org/1999/xlink" x="0px" y="0px"
	 viewBox="0 0 621.5 283.2" enable-background="new 0 0 621.5 283.2" xml:space="preserve">
<g>
	<path fill="#E3DEDB" d="M406.2,125.4l-32.8-65.6c-3.6-7-9.2-11.6-15.4-12.2c-0.8-0.2-1.4-0.2-2-0.2h-15.2c-1.2,0-2.4,0.2-3.6,0.4
		c-4.8,1.2-9.2,4.6-12.4,9.8c-0.2,0.4-0.4,0.6-0.6,1l-13.4,26.8l-13.2-26.6c-0.2-0.4-0.4-0.6-0.6-1c-3.2-5.2-7.4-8.6-12.4-9.8
		c-1-0.4-2.2-0.6-3.6-0.6h-15.4c-0.6,0-1.2,0-1.8,0.2c-6.2,0.8-11.8,5.2-15.4,12.2l-32.8,65.6c-3,6-3.6,12.2-1.8,17.2
		c1.6,5.8,6.8,10.2,13.2,10.2h18.8c5.2,0,9.8-3,12.2-7.6l2.9-6.1c-6.6,0-32.7,0-32.7,0l0,0c-3.8,0.2-1.8-4.7-0.2-7.7L260.6,66
		c1.4-2.8,3.6-5,5-5H281c1.4,0.2,3,1.8,4.2,4l22.4,44.6c0.8,1.8,2,2.6,3.2,2.6c1.2,0,2.2-0.8,3.2-2.6l22.4-44.8
		c1.4-2.2,3-3.6,4.2-3.8l0,0H356l0,0c1.6,0,3.6,2,5,4.8l33,65.6c1.4,3,4.1,7.7-0.1,7.7c0,0-28.8,0-32.8,0l2.9,6.1
		c2.4,4.6,7,7.6,12.2,7.6h18.6c6.4,0,11.6-4.4,13.2-10.2C409.8,137.6,409.2,131.4,406.2,125.4z"/>
	<g>
		<g>
			<linearGradient id="SVGID_1_" gradientUnits="userSpaceOnUse" x1="361.4229" y1="75.174" x2="382.4229" y2="123.424">
				<stop  offset="0.1428" style="stop-color:#B8B8B8"/>
				<stop  offset="0.6303" style="stop-color:#E3DEDB"/>
			</linearGradient>
			<path fill="url(#SVGID_1_)" d="M355,61h0.5C355.2,61,355,61,355,61z"/>
			<linearGradient id="SVGID_2_" gradientUnits="userSpaceOnUse" x1="361.9024" y1="74.9653" x2="382.9024" y2="123.2153">
				<stop  offset="0.1428" style="stop-color:#B8B8B8"/>
				<stop  offset="0.6303" style="stop-color:#E3DEDB"/>
			</linearGradient>
			<path fill="url(#SVGID_2_)" d="M355.5,61c0.2,0,0.4,0,0.6,0c0,0-0.1,0-0.2,0H355.5z"/>
			<linearGradient id="SVGID_3_" gradientUnits="userSpaceOnUse" x1="367.8175" y1="72.3909" x2="388.8175" y2="120.6409">
				<stop  offset="0.1428" style="stop-color:#B8B8B8"/>
				<stop  offset="0.6303" style="stop-color:#E3DEDB"/>
			</linearGradient>
			<path fill="url(#SVGID_3_)" d="M389.4,119.4c-1.5-5.4-0.8-7-0.5-8.2c0.7-2.2-0.1-6.3-1.1-8.3c-4.5-9-16.5-32.2-17.8-34.5
				c-3.4-6.3-11-7.2-13.8-7.4c1.6,0.1,3.5,2.1,4.8,4.8l29.7,58.8c0-0.4,0.1-0.7,0.1-1.1C390.2,122.1,389.7,120.7,389.4,119.4z"/>
		</g>
	</g>
	<g>
		
			<linearGradient id="SVGID_4_" gradientUnits="userSpaceOnUse" x1="412.9875" y1="696.6523" x2="361.9694" y2="702.1448" gradientTransform="matrix(1 0 0 1 0 -558)">
			<stop  offset="5.284134e-02" style="stop-color:#B3B3B3"/>
			<stop  offset="1" style="stop-color:#E3DEDB"/>
		</linearGradient>
		<path fill="url(#SVGID_4_)" d="M395.6,134.9c0.8,2.2,1,4.1-1.7,4.1c0,0-28.8,0-32.8,0l2.9,6.1c0.3,0.5,0.5,0.9,0.8,1.4
			c6.6,0,25-0.2,30.4-0.4C401.6,145.8,395.6,134.9,395.6,134.9z"/>
	</g>
	<g>
		<g>
			
				<linearGradient id="SVGID_5_" gradientUnits="userSpaceOnUse" x1="315.4156" y1="72.3933" x2="336.4045" y2="120.6177" gradientTransform="matrix(-1 0 0 1 569.3147 0)">
				<stop  offset="0.1428" style="stop-color:#B8B8B8"/>
				<stop  offset="0.6263" style="stop-color:#E3DEDB"/>
			</linearGradient>
			<path fill="url(#SVGID_5_)" d="M232.3,119.4c1.5-5.4,0.8-7,0.5-8.2c-0.7-2.2,0.1-6.3,1.1-8.3c4.5-9,16.5-32.2,17.8-34.5
				c3.4-6.3,11-7.2,13.9-7.4c-1.6,0.1-3.5,2.1-4.9,4.8l-29.4,58.9c0-0.4-0.3-0.8-0.3-1.2C231.5,122.1,232,120.7,232.3,119.4z"/>
		</g>
	</g>
	<g>
		
			<linearGradient id="SVGID_6_" gradientUnits="userSpaceOnUse" x1="360.33" y1="696.6592" x2="309.3119" y2="702.1516" gradientTransform="matrix(-1 0 0 1 569.3147 -558)">
			<stop  offset="4.669190e-02" style="stop-color:#B3B3B3"/>
			<stop  offset="1" style="stop-color:#E3DEDB"/>
		</linearGradient>
		<path fill="url(#SVGID_6_)" d="M226.4,134.9c-0.8,2.2-0.6,4.1,2.1,4.1c0,0,28.4,0,32.4,0l-2.9,6.1c-0.3,0.5-0.5,0.9-0.8,1.4
			c-6.6,0-25-0.2-30.4-0.4C220.4,145.8,226.4,134.9,226.4,134.9z"/>
	</g>
	<g>
		<linearGradient id="SVGID_7_" gradientUnits="userSpaceOnUse" x1="313.5848" y1="93.1054" x2="287.5848" y2="52.1054">
			<stop  offset="4.669190e-02" style="stop-color:#B8B8B8"/>
			<stop  offset="0.9961" style="stop-color:#E3DEDB"/>
		</linearGradient>
		<path fill="url(#SVGID_7_)" d="M290.7,56.8c2.4,4.6,9.5,22.4,13.3,30.2c3.8,7.8,8-3.8,8-4l-1.2,2.4l-13.2-26.6
			c-0.2-0.4-0.4-0.6-0.6-1c-3.2-5.2-7.4-8.6-12.4-9.8c-1-0.4-2.2-0.6-3.6-0.6h-0.2l0,0C280.8,47.4,288.3,52.1,290.7,56.8z"/>
	</g>
	<path fill="#E3DEDB" d="M365.8,118.4l-14.7-27.8c-1.4-3.4-4-3.4-5.8,0l-22,43.8c-1.4,2.8-3.4,4.6-4.8,4.8H303
		c-1.6-0.2-3.6-2.2-4.8-4.8l-22-43.8c-1.6-3.4-4.4-3.4-6.2,0l-14.3,27.6l12.9-11.6l17.2,33.8c3.2,6.2,8,10.6,13.4,12
		c1.2,0.4,2.4,0.4,3.6,0.4h15.6c1.2,0,2.4-0.2,3.6-0.4c5.4-1.4,10.4-5.6,13.4-12l17.3-33.8L365.8,118.4z"/>
</g>
<g>
	<path fill="#E3DEDB" d="M131.5,204.8v27.5h-4.7v-19.5l-9.1,14l-9-14v19.5H104v-27.5h5.1l8.6,13.4l8.6-13.4H131.5z"/>
	<path fill="#E3DEDB" d="M171.1,232.3h-5.2l-2.1-4.7l-2.1-4.7l-5.6-12.3l-5.6,12.3h7.1l2.1,4.7h-11.4l-2.1,4.7h-5.2l12.4-27.5h5.2
		L171.1,232.3z"/>
	<path fill="#E3DEDB" d="M205.9,218.5c0,1.5-0.2,3-0.6,4.3s-1,2.6-1.8,3.8l2.5,2.5v6.7l-14.3-14.3v-6.7l8.4,8.4
		c0.8-1.4,1.2-3,1.2-4.7c0-1.3-0.2-2.5-0.7-3.7c-0.5-1.2-1.2-2.2-2.1-3.1c-0.9-0.9-1.9-1.6-3.1-2.1s-2.4-0.7-3.7-0.7
		c-1.3,0-2.5,0.2-3.7,0.7s-2.2,1.2-3.1,2.1c-0.9,0.9-1.6,1.9-2.1,3.1s-0.7,2.4-0.7,3.7s0.2,2.5,0.7,3.7c0.5,1.2,1.2,2.2,2.1,3.1
		c0.9,0.9,2,1.6,3.1,2.1s2.4,0.7,3.7,0.7c0.3,0,0.7,0,1-0.1s0.6-0.1,1-0.1l3.7,3.7c-0.9,0.4-1.8,0.7-2.7,0.9c-1,0.2-1.9,0.3-3,0.3
		c-2,0-3.8-0.4-5.6-1.1c-1.7-0.7-3.3-1.8-4.5-3.1c-1.3-1.3-2.3-2.8-3-4.6c-0.7-1.7-1.1-3.6-1.1-5.6s0.4-3.8,1.1-5.6
		c0.7-1.7,1.8-3.3,3-4.6c1.3-1.3,2.8-2.3,4.5-3.1c1.7-0.7,3.6-1.1,5.6-1.1c2,0,3.8,0.4,5.6,1.1s3.2,1.8,4.5,3.1s2.3,2.8,3.1,4.6
		C205.5,214.7,205.9,216.5,205.9,218.5z"/>
	<path fill="#E3DEDB" d="M239.8,204.8v16.5c0,1.6-0.3,3.1-0.9,4.5c-0.6,1.4-1.4,2.6-2.5,3.7s-2.3,1.9-3.7,2.5
		c-1.4,0.6-2.9,0.9-4.5,0.9s-3.1-0.3-4.5-0.9c-1.4-0.6-2.6-1.4-3.7-2.5s-1.9-2.3-2.5-3.7c-0.6-1.4-0.9-2.9-0.9-4.5v-16.5h4.7v16.5
		c0,0.9,0.2,1.8,0.5,2.6s0.8,1.6,1.5,2.2c0.7,0.7,1.4,1.2,2.2,1.5c0.8,0.3,1.7,0.5,2.6,0.5c1.9,0,3.5-0.7,4.8-2
		c0.7-0.7,1.2-1.4,1.5-2.2s0.5-1.7,0.5-2.6v-16.5H239.8z"/>
	<path fill="#E3DEDB" d="M255.1,232.3h-4.7v-27.5h4.7V232.3z"/>
	<path fill="#E3DEDB" d="M286.7,204.8v27.5h-5.1l-11-18.8v18.8h-4.7v-27.5h5.1l11,18.8v-18.8H286.7z"/>
	<path fill="#E3DEDB" d="M326.4,232.3h-5.2l-2.1-4.7l-2.1-4.7l-5.6-12.3l-5.6,12.3h7.1l2.1,4.7h-11.4l-2.1,4.7h-5.2l12.4-27.5h5.2
		L326.4,232.3z"/>
	<path fill="#E3DEDB" d="M361.7,232.3l-11-27.5h5.1l8.4,20.9l7.8-20.9h5l-10.2,27.5H361.7z"/>
	<path fill="#E3DEDB" d="M391.5,232.3h-4.7v-27.5h4.7V232.3z"/>
	<path fill="#E3DEDB" d="M421.7,224.4c0,1.3-0.2,2.4-0.6,3.5c-0.4,1-1,1.9-1.8,2.6c-0.8,0.7-1.7,1.3-2.8,1.7
		c-1.1,0.4-2.3,0.6-3.7,0.6c-2.2,0-4.1-0.3-5.8-1c-1.7-0.7-3.1-1.5-4.2-2.4l3.3-3.3c0.9,0.8,1.8,1.4,2.9,1.8
		c0.7,0.3,1.3,0.4,1.8,0.5c0.6,0.1,1,0.1,1.4,0.1c0.7,0,1.3-0.1,1.9-0.3c0.6-0.2,1.1-0.4,1.5-0.7c0.9-0.7,1.3-1.5,1.3-2.6
		c0-0.7-0.2-1.2-0.7-1.8c-0.4-0.4-0.8-0.8-1.4-1c-0.5-0.3-1-0.5-1.5-0.6c-0.5-0.2-1-0.3-1.4-0.4c-0.1-0.1-0.2-0.1-0.4-0.1
		c-0.1,0-0.2,0-0.3-0.1c-0.1,0-0.1,0-0.2-0.1c-0.5-0.2-1.3-0.4-2.4-0.8c-1-0.4-2.1-0.9-3.1-1.6c-2.4-1.6-3.6-3.6-3.6-5.9
		c0-1.5,0.3-2.8,0.8-3.9s1.2-1.9,2.1-2.6s1.8-1.1,2.9-1.4s2.1-0.4,3.1-0.4c1.9,0,3.5,0.2,4.8,0.7c1.3,0.4,2.3,0.9,3.1,1.3
		c0.4,0.2,0.7,0.5,1,0.7s0.5,0.4,0.7,0.6l-3.3,3.4c-0.7-0.7-1.4-1.2-2.2-1.6c-1.1-0.5-2.3-0.8-3.5-0.8c-0.5,0-1,0.1-1.6,0.2
		s-1,0.3-1.4,0.5c-1.2,0.7-1.7,1.6-1.7,2.8c0,0.7,0.2,1.3,0.7,1.8c0.3,0.4,0.8,0.7,1.4,1.1c0.5,0.3,1,0.5,1.6,0.6
		c0.6,0.2,1.1,0.3,1.5,0.4l0.5,0.1c0.1,0.1,0.4,0.1,0.7,0.2c0.4,0.1,0.8,0.3,1.3,0.5c0.5,0.2,1,0.5,1.6,0.7s1.2,0.6,1.7,1
		C420.4,220.2,421.7,222.2,421.7,224.4z"/>
	<path fill="#E3DEDB" d="M454.8,204.8v16.5c0,1.6-0.3,3.1-0.9,4.5c-0.6,1.4-1.4,2.6-2.5,3.7s-2.3,1.9-3.7,2.5
		c-1.4,0.6-2.9,0.9-4.5,0.9s-3.1-0.3-4.5-0.9c-1.4-0.6-2.6-1.4-3.7-2.5s-1.9-2.3-2.5-3.7c-0.6-1.4-0.9-2.9-0.9-4.5v-16.5h4.7v16.5
		c0,0.9,0.2,1.8,0.5,2.6s0.8,1.6,1.5,2.2c0.7,0.7,1.4,1.2,2.2,1.5c0.8,0.3,1.7,0.5,2.6,0.5c1.9,0,3.5-0.7,4.8-2
		c0.7-0.7,1.2-1.4,1.5-2.2s0.5-1.7,0.5-2.6v-16.5H454.8z"/>
	<path fill="#E3DEDB" d="M492.4,232.3h-5.2l-2.1-4.7l-2.1-4.7l-5.6-12.3l-5.6,12.3h7.1l2.1,4.7h-11.4l-2.1,4.7h-5.2l12.4-27.5h5.2
		L492.4,232.3z"/>
	<path fill="#E3DEDB" d="M517.6,227.6v4.7h-10.8h-4.7v-4.7v-22.7h4.7v22.7H517.6z"/>
</g>
</svg>
