<?xml version="1.0" encoding="utf-8"?>
<!-- Generator: Adobe Illustrator 21.1.0, SVG Export Plug-In . SVG Version: 6.00 Build 0)  -->
<svg version="1.1" id="Layer_1" xmlns="http://www.w3.org/2000/svg" xmlns:xlink="http://www.w3.org/1999/xlink" x="0px" y="0px"
	 viewBox="0 0 508 141" style="enable-background:new 0 0 508 141;" xml:space="preserve">
<style type="text/css">
	.st0{fill:#1E1814;}
	.st1{fill:url(#SVGID_1_);}
	.st2{fill:url(#SVGID_2_);}
	.st3{fill:url(#SVGID_3_);}
	.st4{fill:url(#SVGID_4_);}
	.st5{fill:url(#SVGID_5_);}
	.st6{fill:url(#SVGID_6_);}
	.st7{fill:url(#SVGID_7_);}
	.st8{fill:url(#SVGID_8_);}
	.st9{fill:url(#SVGID_9_);}
	.st10{fill:url(#SVGID_10_);}
	.st11{fill:#FFFFFF;}
	.st12{fill:url(#SVGID_11_);}
	.st13{fill:url(#SVGID_12_);}
	.st14{fill:url(#SVGID_13_);}
	.st15{fill:url(#SVGID_14_);}
	.st16{fill:url(#SVGID_15_);}
	.st17{fill:url(#SVGID_16_);}
	.st18{fill:url(#SVGID_17_);}
	.st19{fill:url(#SVGID_18_);}
	.st20{fill:url(#SVGID_19_);}
	.st21{fill:url(#SVGID_20_);}
</style>
<g>
	<g>
		<path class="st0" d="M501.6,2980.6v33.5h-5.7v-23.7l-11,17.1l-11-17.1v23.7h-5.7v-33.5h6.3l10.5,16.3l10.5-16.3H501.6z"/>
		<path class="st0" d="M549.9,3014.2h-6.3l-2.6-5.7l-2.6-5.7l-6.8-15l-6.8,15h8.7l2.6,5.7h-13.9l-2.6,5.7h-6.3l15.1-33.5h6.3
			L549.9,3014.2z"/>
		<path class="st0" d="M594.6,2997.4c0,1.8-0.3,3.6-0.8,5.3s-1.3,3.2-2.2,4.6l3,3.1v8.1l-17.4-17.4v-8.1l10.2,10.2
			c1-1.7,1.4-3.6,1.4-5.7c0-1.6-0.3-3-0.9-4.4c-0.6-1.4-1.4-2.7-2.5-3.8c-1.1-1.1-2.4-2-3.8-2.6s-2.9-0.9-4.5-0.9
			c-1.6,0-3,0.3-4.4,0.9s-2.7,1.4-3.8,2.6c-1.1,1.1-2,2.4-2.5,3.8c-0.6,1.4-0.9,2.9-0.9,4.4c0,1.6,0.3,3.1,0.9,4.5
			c0.6,1.4,1.4,2.7,2.5,3.8c1.1,1.1,2.4,2,3.8,2.5s2.9,0.9,4.4,0.9c0.4,0,0.8,0,1.2-0.1s0.8-0.1,1.2-0.2l4.5,4.5
			c-1.1,0.4-2.2,0.8-3.3,1.1c-1.2,0.3-2.4,0.4-3.6,0.4c-2.4,0-4.6-0.5-6.8-1.4c-2.1-0.9-4-2.1-5.5-3.7c-1.6-1.6-2.8-3.4-3.7-5.6
			c-0.9-2.1-1.4-4.4-1.4-6.8c0-2.4,0.5-4.6,1.4-6.8c0.9-2.1,2.1-4,3.7-5.5c1.6-1.6,3.4-2.8,5.5-3.7c2.1-0.9,4.4-1.4,6.8-1.4
			c2.4,0,4.7,0.5,6.8,1.4s3.9,2.1,5.5,3.7s2.8,3.4,3.7,5.5C594.1,2992.7,594.6,2995,594.6,2997.4z"/>
		<path class="st0" d="M638.3,2980.7v20.1c0,1.9-0.4,3.8-1.1,5.5c-0.7,1.7-1.7,3.2-3,4.5c-1.3,1.3-2.8,2.3-4.5,3
			c-1.7,0.7-3.5,1.1-5.5,1.1c-1.9,0-3.8-0.4-5.5-1.1c-1.7-0.7-3.2-1.7-4.5-3s-2.3-2.8-3-4.5c-0.7-1.7-1.1-3.5-1.1-5.5v-20.1h5.7
			v20.1c0,1.1,0.2,2.2,0.6,3.2c0.4,1,1,1.9,1.8,2.7c0.8,0.8,1.7,1.4,2.7,1.8c1,0.4,2.1,0.6,3.2,0.6c2.3,0,4.3-0.8,5.9-2.4
			c0.8-0.8,1.4-1.7,1.8-2.7c0.4-1,0.6-2.1,0.6-3.2v-20.1H638.3z"/>
		<path class="st0" d="M659.4,3014.2h-5.7v-33.4h5.7V3014.2z"/>
		<path class="st0" d="M700.4,2980.6v33.5h-6.2l-13.4-22.9v22.9H675v-33.5h6.2l13.4,22.9v-22.9H700.4z"/>
		<path class="st0" d="M753.5,3014.2h-6.3l-2.6-5.7l-2.6-5.7l-6.8-15l-6.8,15h8.7l2.6,5.7h-13.9l-2.6,5.7h-6.3l15.1-33.5h6.3
			L753.5,3014.2z"/>
		<path class="st0" d="M477.6,3049.5l-8.6-21.4h4l6.5,16.3l6.1-16.3h3.9l-8,21.4H477.6z"/>
		<path class="st0" d="M500.8,3049.5h-3.7v-21.4h3.7V3049.5z"/>
		<path class="st0" d="M524.4,3043.4c0,1-0.2,1.9-0.5,2.7c-0.3,0.8-0.8,1.5-1.4,2.1c-0.6,0.6-1.3,1-2.2,1.3
			c-0.9,0.3-1.8,0.5-2.9,0.5c-1.7,0-3.2-0.3-4.5-0.8c-1.3-0.5-2.4-1.2-3.3-1.9l2.5-2.5c0.7,0.6,1.4,1.1,2.3,1.4
			c0.5,0.2,1,0.3,1.4,0.4c0.4,0.1,0.8,0.1,1.1,0.1c0.5,0,1-0.1,1.5-0.2c0.4-0.1,0.8-0.3,1.1-0.5c0.7-0.5,1-1.2,1-2
			c0-0.5-0.2-1-0.6-1.4c-0.3-0.3-0.7-0.6-1.1-0.8c-0.4-0.2-0.8-0.4-1.2-0.5c-0.4-0.1-0.8-0.2-1.1-0.3c-0.1,0-0.2-0.1-0.3-0.1
			c-0.1,0-0.2,0-0.2-0.1c0,0-0.1,0-0.2-0.1c-0.4-0.1-1-0.3-1.9-0.6c-0.8-0.3-1.6-0.7-2.4-1.3c-1.9-1.2-2.8-2.8-2.8-4.6
			c0-1.2,0.2-2.2,0.6-3s1-1.5,1.6-2c0.7-0.5,1.4-0.9,2.2-1.1c0.8-0.2,1.6-0.3,2.4-0.3c1.5,0,2.7,0.2,3.7,0.5c1,0.3,1.8,0.7,2.4,1
			c0.3,0.2,0.6,0.4,0.8,0.5s0.4,0.3,0.6,0.5l-2.6,2.6c-0.6-0.6-1.1-1-1.7-1.3c-0.9-0.4-1.8-0.6-2.7-0.6c-0.4,0-0.8,0.1-1.2,0.2
			c-0.4,0.1-0.8,0.2-1.1,0.4c-0.9,0.6-1.3,1.3-1.3,2.2c0,0.6,0.2,1,0.6,1.4c0.3,0.3,0.6,0.6,1.1,0.8c0.4,0.2,0.8,0.4,1.2,0.5
			c0.4,0.1,0.8,0.2,1.2,0.3l0.4,0.1c0.1,0,0.3,0.1,0.6,0.2c0.3,0.1,0.6,0.2,1,0.4c0.4,0.2,0.8,0.4,1.3,0.6c0.5,0.2,0.9,0.5,1.4,0.8
			C523.4,3040.1,524.4,3041.6,524.4,3043.4z"/>
		<path class="st0" d="M550.2,3028.1v12.9c0,1.2-0.2,2.4-0.7,3.5c-0.5,1.1-1.1,2-1.9,2.9c-0.8,0.8-1.8,1.5-2.9,1.9
			c-1.1,0.5-2.3,0.7-3.5,0.7s-2.4-0.2-3.5-0.7c-1.1-0.5-2-1.1-2.9-1.9c-0.8-0.8-1.5-1.8-1.9-2.9c-0.5-1.1-0.7-2.3-0.7-3.5v-12.9h3.7
			v12.9c0,0.7,0.1,1.4,0.4,2c0.3,0.6,0.7,1.2,1.2,1.7c0.5,0.5,1.1,0.9,1.7,1.2c0.6,0.3,1.3,0.4,2,0.4c1.5,0,2.7-0.5,3.8-1.6
			c0.5-0.5,0.9-1.1,1.2-1.7c0.3-0.6,0.4-1.3,0.4-2v-12.9H550.2z"/>
		<path class="st0" d="M579.5,3049.5h-4l-1.7-3.7l-1.7-3.7l-4.3-9.6l-4.3,9.6h5.6l1.7,3.7h-8.9l-1.7,3.7h-4l9.7-21.4h4L579.5,3049.5
			z"/>
		<path class="st0" d="M599.1,3045.8v3.7h-8.4H587v-3.7v-17.7h3.7v17.7H599.1z"/>
	</g>
	
		<linearGradient id="SVGID_1_" gradientUnits="userSpaceOnUse" x1="463.5901" y1="-2847.3848" x2="418.1773" y2="-2918.6401" gradientTransform="matrix(1 0 0 -1 0 144)">
		<stop  offset="0" style="stop-color:#C55903"/>
		<stop  offset="1" style="stop-color:#D62688"/>
	</linearGradient>
	<rect x="447.4" y="2966.7" class="st1" width="2.4" height="96.5"/>
	<g>
		<linearGradient id="SVGID_2_" gradientUnits="userSpaceOnUse" x1="426.5695" y1="3015.5122" x2="291.42" y2="3015.5122">
			<stop  offset="0" style="stop-color:#C55903"/>
			<stop  offset="1" style="stop-color:#D62688"/>
		</linearGradient>
		<path class="st2" d="M424.6,3032.9l-22.6-45.2c-2.5-4.8-6.3-8-10.6-8.4c-0.6-0.1-1-0.1-1.4-0.1h-10.5c-0.8,0-1.7,0.1-2.5,0.3
			c-3.3,0.8-6.3,3.2-8.5,6.7c-0.1,0.3-0.3,0.4-0.4,0.7l-9.2,18.5l-9.1-18.3c-0.1-0.3-0.3-0.4-0.4-0.7c-2.2-3.6-5.1-5.9-8.5-6.7
			c-0.7-0.3-1.5-0.4-2.5-0.4h-10.6c-0.4,0-0.8,0-1.2,0.1c-4.3,0.6-8.1,3.6-10.6,8.4l-22.6,45.2c-2.1,4.1-2.5,8.4-1.2,11.8
			c1.1,4,4.7,7,9.1,7h12.9c3.6,0,6.7-2.1,8.4-5.2l2-4.2c-4.5,0-22.6,0-22.6,0l0,0c-2.6,0.1-1.2-3.3-0.1-5.3l22.5-45
			c1-1.9,2.5-3.4,3.4-3.4h10.6c1,0.1,2.1,1.2,2.9,2.7l15.4,30.7c0.6,1.2,1.4,1.8,2.2,1.8c0.8,0,1.5-0.6,2.2-1.8l15.4-30.9
			c1-1.5,2.1-2.5,2.9-2.6l0,0h10.6l0,0c1.1,0,2.5,1.4,3.4,3.3l22.7,45.2c1,2.1,2.8,5.3-0.1,5.3c0,0-19.8,0-22.6,0l2,4.2
			c1.7,3.2,4.8,5.2,8.4,5.2h12.8c4.4,0,8-3,9.1-7C427.1,3041.3,426.7,3037.1,424.6,3032.9z"/>
		<g>
			<g>
				<linearGradient id="SVGID_3_" gradientUnits="userSpaceOnUse" x1="393.8144" y1="2998.3713" x2="408.2781" y2="3031.6035">
					<stop  offset="4.669190e-02" style="stop-color:#6D2A06"/>
					<stop  offset="0.3253" style="stop-color:#E12C06"/>
					<stop  offset="0.6584" style="stop-color:#C55903"/>
				</linearGradient>
				<path class="st3" d="M389.4,2988.6h0.4C389.5,2988.6,389.4,2988.6,389.4,2988.6z"/>
				<linearGradient id="SVGID_4_" gradientUnits="userSpaceOnUse" x1="394.1447" y1="2998.2278" x2="408.6084" y2="3031.4597">
					<stop  offset="4.669190e-02" style="stop-color:#6D2A06"/>
					<stop  offset="0.3253" style="stop-color:#E12C06"/>
					<stop  offset="0.6584" style="stop-color:#C55903"/>
				</linearGradient>
				<path class="st4" d="M389.7,2988.6c0.1,0,0.3,0,0.4,0c0,0-0.1,0-0.1,0H389.7z"/>
				<linearGradient id="SVGID_5_" gradientUnits="userSpaceOnUse" x1="398.2186" y1="2996.4546" x2="412.6823" y2="3029.6868">
					<stop  offset="4.669190e-02" style="stop-color:#6D2A06"/>
					<stop  offset="0.3253" style="stop-color:#E12C06"/>
					<stop  offset="0.6584" style="stop-color:#C55903"/>
				</linearGradient>
				<path class="st5" d="M413.1,3028.9c-1-3.7-0.6-4.8-0.3-5.7c0.5-1.5-0.1-4.3-0.8-5.7c-3.1-6.2-11.4-22.2-12.3-23.8
					c-2.3-4.3-7.6-5-9.5-5.1c1.1,0.1,2.4,1.4,3.3,3.3l20.4,40.5c0-0.3,0-0.5,0.1-0.8C413.6,3030.7,413.3,3029.7,413.1,3028.9z"/>
			</g>
		</g>
		<g>
			
				<linearGradient id="SVGID_6_" gradientUnits="userSpaceOnUse" x1="429.3294" y1="3600.092" x2="394.1908" y2="3603.875" gradientTransform="matrix(1 0 0 1 0 -558)">
				<stop  offset="4.669190e-02" style="stop-color:#6D2A06"/>
				<stop  offset="1" style="stop-color:#E12C06"/>
			</linearGradient>
			<path class="st6" d="M417.3,3039.5c0.5,1.5,0.7,2.9-1.2,2.9c0,0-19.8,0-22.6,0l2,4.2c0.2,0.3,0.4,0.7,0.6,1
				c4.6,0,17.2-0.1,20.9-0.3C421.5,3047,417.3,3039.5,417.3,3039.5z"/>
		</g>
		<g>
			<g>
				
					<linearGradient id="SVGID_7_" gradientUnits="userSpaceOnUse" x1="125.9108" y1="2996.4563" x2="140.3668" y2="3029.6707" gradientTransform="matrix(-1 0 0 1 445.6683 0)">
					<stop  offset="4.669190e-02" style="stop-color:#6D2A06"/>
					<stop  offset="0.285" style="stop-color:#E12C06"/>
					<stop  offset="0.5104" style="stop-color:#D62688"/>
				</linearGradient>
				<path class="st7" d="M304.9,3028.9c1-3.7,0.6-4.8,0.3-5.7c-0.5-1.5,0.1-4.3,0.8-5.7c3.1-6.2,11.4-22.2,12.3-23.8
					c2.3-4.3,7.6-5,9.5-5.1c-1.1,0.1-2.4,1.4-3.3,3.3l-20.3,40.6c0-0.3-0.2-0.6-0.2-0.8C304.3,3030.7,304.7,3029.7,304.9,3028.9z"/>
			</g>
		</g>
		<g>
			
				<linearGradient id="SVGID_8_" gradientUnits="userSpaceOnUse" x1="156.8454" y1="3600.0967" x2="121.7068" y2="3603.8796" gradientTransform="matrix(-1 0 0 1 445.6683 -558)">
				<stop  offset="4.669190e-02" style="stop-color:#6D2A06"/>
				<stop  offset="1" style="stop-color:#E12C06"/>
			</linearGradient>
			<path class="st8" d="M300.8,3039.5c-0.5,1.5-0.4,2.8,1.4,2.8c0,0,19.6,0,22.3,0l-2,4.2c-0.2,0.3-0.4,0.7-0.6,1
				c-4.6,0-17.2-0.1-20.9-0.3C296.7,3047,300.8,3039.5,300.8,3039.5z"/>
		</g>
		<g>
			<linearGradient id="SVGID_9_" gradientUnits="userSpaceOnUse" x1="360.866" y1="3010.7217" x2="342.9586" y2="2982.4829">
				<stop  offset="4.669190e-02" style="stop-color:#6D2A06"/>
				<stop  offset="1" style="stop-color:#E12C06"/>
			</linearGradient>
			<path class="st9" d="M345.1,2985.7c1.7,3.2,6.5,15.4,9.1,20.8c2.6,5.4,5.5-2.6,5.5-2.8l-0.8,1.7l-9.1-18.3
				c-0.1-0.3-0.3-0.4-0.4-0.7c-2.2-3.6-5.1-5.9-8.5-6.7c-0.7-0.3-1.5-0.4-2.5-0.4h-0.1l0,0C338.3,2979.2,343.4,2982.5,345.1,2985.7z
				"/>
		</g>
		<linearGradient id="SVGID_10_" gradientUnits="userSpaceOnUse" x1="320.958" y1="3029.511" x2="396.8458" y2="3029.511">
			<stop  offset="0" style="stop-color:#C55903"/>
			<stop  offset="1" style="stop-color:#D62688"/>
		</linearGradient>
		<path class="st10" d="M396.8,3028.1l-10.1-19.2c-1-2.3-2.8-2.3-4,0l-15.2,30.2c-1,1.9-2.3,3.2-3.3,3.3h-10.7
			c-1.1-0.1-2.5-1.5-3.3-3.3l-15.2-30.2c-1.1-2.3-3-2.3-4.3,0l-9.9,19l8.9-8l11.9,23.3c2.2,4.3,5.5,7.3,9.2,8.3
			c0.8,0.3,1.7,0.3,2.5,0.3h10.7c0.8,0,1.7-0.1,2.5-0.3c3.7-1,7.2-3.9,9.2-8.3l11.9-23.3L396.8,3028.1z"/>
	</g>
</g>
<g>
	<g>
		<path class="st11" d="M233.2,36.2v33.5h-5.7V45.9l-11,17.1l-11-17.1v23.7h-5.7V36.2h6.3l10.5,16.3l10.5-16.3H233.2z"/>
		<path class="st11" d="M281.4,69.7h-6.3l-2.6-5.7l-2.6-5.7l-6.8-15l-6.8,15h8.7l2.6,5.7h-13.9l-2.6,5.7h-6.3L260,36.2h6.3
			L281.4,69.7z"/>
		<path class="st11" d="M326.1,52.9c0,1.8-0.3,3.6-0.8,5.3c-0.5,1.7-1.3,3.2-2.2,4.6l3,3.1V74l-17.4-17.4v-8.1L319,58.6
			c1-1.7,1.4-3.6,1.4-5.7c0-1.6-0.3-3-0.9-4.4c-0.6-1.4-1.4-2.7-2.5-3.8c-1.1-1.1-2.4-2-3.8-2.6c-1.4-0.6-2.9-0.9-4.5-0.9
			c-1.6,0-3,0.3-4.4,0.9s-2.7,1.4-3.8,2.6c-1.1,1.1-2,2.4-2.5,3.8s-0.9,2.9-0.9,4.4c0,1.6,0.3,3.1,0.9,4.5c0.6,1.4,1.4,2.7,2.5,3.8
			c1.1,1.1,2.4,2,3.8,2.5c1.4,0.6,2.9,0.9,4.4,0.9c0.4,0,0.8,0,1.2-0.1c0.4,0,0.8-0.1,1.2-0.2l4.5,4.5c-1.1,0.4-2.2,0.8-3.3,1.1
			c-1.2,0.3-2.4,0.4-3.6,0.4c-2.4,0-4.6-0.5-6.8-1.4c-2.1-0.9-4-2.1-5.5-3.7c-1.6-1.6-2.8-3.4-3.7-5.6c-0.9-2.1-1.4-4.4-1.4-6.8
			s0.5-4.6,1.4-6.8c0.9-2.1,2.1-4,3.7-5.5c1.6-1.6,3.4-2.8,5.5-3.7c2.1-0.9,4.4-1.4,6.8-1.4c2.4,0,4.7,0.5,6.8,1.4
			c2.1,0.9,3.9,2.1,5.5,3.7c1.6,1.6,2.8,3.4,3.7,5.5C325.7,48.3,326.1,50.5,326.1,52.9z"/>
		<path class="st11" d="M369.8,36.2v20.1c0,1.9-0.4,3.8-1.1,5.5c-0.7,1.7-1.7,3.2-3,4.5s-2.8,2.3-4.5,3c-1.7,0.7-3.5,1.1-5.5,1.1
			c-1.9,0-3.8-0.4-5.5-1.1c-1.7-0.7-3.2-1.7-4.5-3s-2.3-2.8-3-4.5c-0.7-1.7-1.1-3.5-1.1-5.5V36.2h5.7v20.1c0,1.1,0.2,2.2,0.6,3.2
			s1,1.9,1.8,2.7c0.8,0.8,1.7,1.4,2.7,1.8c1,0.4,2.1,0.6,3.2,0.6c2.3,0,4.3-0.8,5.9-2.4c0.8-0.8,1.4-1.7,1.8-2.7s0.6-2.1,0.6-3.2
			V36.2H369.8z"/>
		<path class="st11" d="M390.9,69.7h-5.7V36.3h5.7V69.7z"/>
		<path class="st11" d="M431.9,36.2v33.5h-6.2l-13.4-22.9v22.9h-5.7V36.2h6.2l13.4,22.9V36.2H431.9z"/>
		<path class="st11" d="M485,69.7h-6.3l-2.6-5.7l-2.6-5.7l-6.8-15l-6.8,15h8.7l2.6,5.7h-13.9l-2.6,5.7h-6.3l15.1-33.5h6.3L485,69.7z
			"/>
		<path class="st11" d="M209.2,105.1l-8.6-21.4h4l6.5,16.3l6.1-16.3h3.9l-8,21.4H209.2z"/>
		<path class="st11" d="M232.4,105.1h-3.7V83.7h3.7V105.1z"/>
		<path class="st11" d="M255.9,98.9c0,1-0.2,1.9-0.5,2.7c-0.3,0.8-0.8,1.5-1.4,2.1c-0.6,0.6-1.3,1-2.2,1.3c-0.9,0.3-1.8,0.5-2.9,0.5
			c-1.7,0-3.2-0.3-4.5-0.8c-1.3-0.5-2.4-1.2-3.3-1.9l2.5-2.5c0.7,0.6,1.4,1.1,2.3,1.4c0.5,0.2,1,0.3,1.4,0.4
			c0.4,0.1,0.8,0.1,1.1,0.1c0.5,0,1-0.1,1.5-0.2c0.4-0.1,0.8-0.3,1.1-0.5c0.7-0.5,1-1.2,1-2c0-0.5-0.2-1-0.6-1.4
			c-0.3-0.3-0.7-0.6-1.1-0.8c-0.4-0.2-0.8-0.4-1.2-0.5c-0.4-0.1-0.8-0.2-1.1-0.3c-0.1,0-0.2-0.1-0.3-0.1c-0.1,0-0.2,0-0.2-0.1
			c0,0-0.1,0-0.2-0.1c-0.4-0.1-1-0.3-1.9-0.6c-0.8-0.3-1.6-0.7-2.4-1.3c-1.9-1.2-2.8-2.8-2.8-4.6c0-1.2,0.2-2.2,0.6-3
			c0.4-0.8,1-1.5,1.6-2s1.4-0.9,2.2-1.1c0.8-0.2,1.6-0.3,2.4-0.3c1.5,0,2.7,0.2,3.7,0.5c1,0.3,1.8,0.7,2.4,1
			c0.3,0.2,0.6,0.4,0.8,0.5s0.4,0.3,0.6,0.5l-2.6,2.6c-0.6-0.6-1.1-1-1.7-1.3c-0.9-0.4-1.8-0.6-2.7-0.6c-0.4,0-0.8,0.1-1.2,0.2
			c-0.4,0.1-0.8,0.2-1.1,0.4c-0.9,0.6-1.3,1.3-1.3,2.2c0,0.6,0.2,1,0.6,1.4c0.3,0.3,0.6,0.6,1.1,0.8c0.4,0.2,0.8,0.4,1.2,0.5
			c0.4,0.1,0.8,0.2,1.2,0.3l0.4,0.1c0.1,0,0.3,0.1,0.6,0.2c0.3,0.1,0.6,0.2,1,0.4c0.4,0.2,0.8,0.4,1.3,0.6c0.5,0.2,0.9,0.5,1.4,0.8
			C254.9,95.6,255.9,97.2,255.9,98.9z"/>
		<path class="st11" d="M281.7,83.6v12.9c0,1.2-0.2,2.4-0.7,3.5c-0.5,1.1-1.1,2-1.9,2.9c-0.8,0.8-1.8,1.5-2.9,1.9
			c-1.1,0.5-2.3,0.7-3.5,0.7s-2.4-0.2-3.5-0.7c-1.1-0.5-2-1.1-2.9-1.9c-0.8-0.8-1.5-1.8-1.9-2.9c-0.5-1.1-0.7-2.3-0.7-3.5V83.6h3.7
			v12.9c0,0.7,0.1,1.4,0.4,2c0.3,0.6,0.7,1.2,1.2,1.7c0.5,0.5,1.1,0.9,1.7,1.2c0.6,0.3,1.3,0.4,2,0.4c1.5,0,2.7-0.5,3.8-1.6
			c0.5-0.5,0.9-1.1,1.2-1.7s0.4-1.3,0.4-2V83.6H281.7z"/>
		<path class="st11" d="M311,105.1h-4l-1.7-3.7l-1.7-3.7l-4.3-9.6l-4.3,9.6h5.6l1.7,3.7h-8.9l-1.7,3.7h-4l9.7-21.4h4L311,105.1z"/>
		<path class="st11" d="M330.6,101.4v3.7h-8.4h-3.7v-3.7V83.7h3.7v17.7H330.6z"/>
	</g>
	
		<linearGradient id="SVGID_11_" gradientUnits="userSpaceOnUse" x1="195.1365" y1="97.0693" x2="149.7238" y2="25.8139" gradientTransform="matrix(1 0 0 -1 0 144)">
		<stop  offset="0" style="stop-color:#C55903"/>
		<stop  offset="1" style="stop-color:#D62688"/>
	</linearGradient>
	<rect x="178.9" y="22.2" class="st12" width="2.4" height="96.5"/>
	<g>
		<linearGradient id="SVGID_12_" gradientUnits="userSpaceOnUse" x1="158.116" y1="71.0581" x2="22.9665" y2="71.0581">
			<stop  offset="0" style="stop-color:#C55903"/>
			<stop  offset="1" style="stop-color:#D62688"/>
		</linearGradient>
		<path class="st13" d="M156.2,88.5l-22.6-45.2c-2.5-4.8-6.3-8-10.6-8.4c-0.6-0.1-1-0.1-1.4-0.1h-10.5c-0.8,0-1.7,0.1-2.5,0.3
			c-3.3,0.8-6.3,3.2-8.5,6.7c-0.1,0.3-0.3,0.4-0.4,0.7l-9.2,18.5l-9.1-18.3c-0.1-0.3-0.3-0.4-0.4-0.7c-2.2-3.6-5.1-5.9-8.5-6.7
			c-0.7-0.3-1.5-0.4-2.5-0.4H59.3c-0.4,0-0.8,0-1.2,0.1c-4.3,0.6-8.1,3.6-10.6,8.4L24.9,88.5c-2.1,4.1-2.5,8.4-1.2,11.8
			c1.1,4,4.7,7,9.1,7h12.9c3.6,0,6.7-2.1,8.4-5.2l2-4.2c-4.5,0-22.6,0-22.6,0l0,0c-2.6,0.1-1.2-3.3-0.1-5.3l22.5-45
			c1-1.9,2.5-3.4,3.4-3.4h10.6c1,0.1,2.1,1.2,2.9,2.7l15.4,30.7c0.6,1.2,1.4,1.8,2.2,1.8c0.8,0,1.5-0.6,2.2-1.8l15.4-30.9
			c1-1.5,2.1-2.5,2.9-2.6l0,0h10.6l0,0c1.1,0,2.5,1.4,3.4,3.3l22.7,45.2c1,2.1,2.8,5.3-0.1,5.3c0,0-19.8,0-22.6,0l2,4.2
			c1.7,3.2,4.8,5.2,8.4,5.2h12.8c4.4,0,8-3,9.1-7C158.7,96.9,158.2,92.6,156.2,88.5z"/>
		<g>
			<g>
				<linearGradient id="SVGID_13_" gradientUnits="userSpaceOnUse" x1="125.3609" y1="53.9175" x2="139.8246" y2="87.1495">
					<stop  offset="4.669190e-02" style="stop-color:#6D2A06"/>
					<stop  offset="0.3253" style="stop-color:#E12C06"/>
					<stop  offset="0.6584" style="stop-color:#C55903"/>
				</linearGradient>
				<path class="st14" d="M120.9,44.1h0.4C121.1,44.1,120.9,44.1,120.9,44.1z"/>
				<linearGradient id="SVGID_14_" gradientUnits="userSpaceOnUse" x1="125.6911" y1="53.7737" x2="140.1548" y2="87.0058">
					<stop  offset="4.669190e-02" style="stop-color:#6D2A06"/>
					<stop  offset="0.3253" style="stop-color:#E12C06"/>
					<stop  offset="0.6584" style="stop-color:#C55903"/>
				</linearGradient>
				<path class="st15" d="M121.3,44.1c0.1,0,0.3,0,0.4,0c0,0-0.1,0-0.1,0H121.3z"/>
				<linearGradient id="SVGID_15_" gradientUnits="userSpaceOnUse" x1="129.7651" y1="52.0006" x2="144.2288" y2="85.2327">
					<stop  offset="4.669190e-02" style="stop-color:#6D2A06"/>
					<stop  offset="0.3253" style="stop-color:#E12C06"/>
					<stop  offset="0.6584" style="stop-color:#C55903"/>
				</linearGradient>
				<path class="st16" d="M144.6,84.4c-1-3.7-0.6-4.8-0.3-5.7c0.5-1.5-0.1-4.3-0.8-5.7c-3.1-6.2-11.4-22.2-12.3-23.8
					c-2.3-4.3-7.6-5-9.5-5.1c1.1,0.1,2.4,1.4,3.3,3.3L145.5,88c0-0.3,0-0.5,0.1-0.8C145.2,86.2,144.9,85.3,144.6,84.4z"/>
			</g>
		</g>
		<g>
			
				<linearGradient id="SVGID_16_" gradientUnits="userSpaceOnUse" x1="160.8759" y1="655.638" x2="125.7372" y2="659.4209" gradientTransform="matrix(1 0 0 1 0 -558)">
				<stop  offset="4.669190e-02" style="stop-color:#6D2A06"/>
				<stop  offset="1" style="stop-color:#E12C06"/>
			</linearGradient>
			<path class="st17" d="M148.9,95.1c0.5,1.5,0.7,2.9-1.2,2.9c0,0-19.8,0-22.6,0l2,4.2c0.2,0.3,0.4,0.7,0.6,1
				c4.6,0,17.2-0.1,20.9-0.3C153,102.5,148.9,95.1,148.9,95.1z"/>
		</g>
		<g>
			<g>
				
					<linearGradient id="SVGID_17_" gradientUnits="userSpaceOnUse" x1="394.3643" y1="52.0023" x2="408.8203" y2="85.2167" gradientTransform="matrix(-1 0 0 1 445.6683 0)">
					<stop  offset="4.669190e-02" style="stop-color:#6D2A06"/>
					<stop  offset="0.285" style="stop-color:#E12C06"/>
					<stop  offset="0.5104" style="stop-color:#D62688"/>
				</linearGradient>
				<path class="st18" d="M36.4,84.4c1-3.7,0.6-4.8,0.3-5.7c-0.5-1.5,0.1-4.3,0.8-5.7c3.1-6.2,11.4-22.2,12.3-23.8
					c2.3-4.3,7.6-5,9.5-5.1c-1.1,0.1-2.4,1.4-3.3,3.3L35.7,88c0-0.3-0.2-0.6-0.2-0.8C35.9,86.2,36.2,85.3,36.4,84.4z"/>
			</g>
		</g>
		<g>
			
				<linearGradient id="SVGID_18_" gradientUnits="userSpaceOnUse" x1="425.299" y1="655.6428" x2="390.1603" y2="659.4257" gradientTransform="matrix(-1 0 0 1 445.6683 -558)">
				<stop  offset="4.669190e-02" style="stop-color:#6D2A06"/>
				<stop  offset="1" style="stop-color:#E12C06"/>
			</linearGradient>
			<path class="st19" d="M32.3,95.1c-0.5,1.5-0.4,2.8,1.4,2.8c0,0,19.6,0,22.3,0l-2,4.2c-0.2,0.3-0.4,0.7-0.6,1
				c-4.6,0-17.2-0.1-20.9-0.3C28.2,102.5,32.4,95.1,32.3,95.1z"/>
		</g>
		<g>
			<linearGradient id="SVGID_19_" gradientUnits="userSpaceOnUse" x1="92.4125" y1="66.2677" x2="74.5051" y2="38.029">
				<stop  offset="4.669190e-02" style="stop-color:#6D2A06"/>
				<stop  offset="1" style="stop-color:#E12C06"/>
			</linearGradient>
			<path class="st20" d="M76.6,41.3c1.7,3.2,6.5,15.4,9.1,20.8c2.6,5.4,5.5-2.6,5.5-2.8l-0.8,1.7l-9.1-18.3
				c-0.1-0.3-0.3-0.4-0.4-0.7c-2.2-3.6-5.1-5.9-8.5-6.7c-0.7-0.3-1.5-0.4-2.5-0.4h-0.1l0,0C69.8,34.8,75,38.1,76.6,41.3z"/>
		</g>
		<linearGradient id="SVGID_20_" gradientUnits="userSpaceOnUse" x1="52.5045" y1="85.057" x2="128.3922" y2="85.057">
			<stop  offset="0" style="stop-color:#C55903"/>
			<stop  offset="1" style="stop-color:#D62688"/>
		</linearGradient>
		<path class="st21" d="M128.4,83.7l-10.1-19.2c-1-2.3-2.8-2.3-4,0L99.2,94.7c-1,1.9-2.3,3.2-3.3,3.3H85.1c-1.1-0.1-2.5-1.5-3.3-3.3
			L66.6,64.5c-1.1-2.3-3-2.3-4.3,0l-9.9,19l8.9-8l11.9,23.3c2.2,4.3,5.5,7.3,9.2,8.3c0.8,0.3,1.7,0.3,2.5,0.3h10.7
			c0.8,0,1.7-0.1,2.5-0.3c3.7-1,7.2-3.9,9.2-8.3l11.9-23.3L128.4,83.7z"/>
	</g>
</g>
</svg>
